<svg width="18" height="19" viewBox="0 0 18 19" fill="none" xmlns="http://www.w3.org/2000/svg">
<g opacity="0.8" clip-path="url(#clip0_4_204)">
<path d="M1.5 16.9992C1.5 15.4079 2.13214 13.8818 3.25736 12.7566C4.38258 11.6314 5.9087 10.9992 7.5 10.9992C9.0913 10.9992 10.6174 11.6314 11.7426 12.7566C12.8679 13.8818 13.5 15.4079 13.5 16.9992H12C12 15.8058 11.5259 14.6612 10.682 13.8173C9.83807 12.9733 8.69347 12.4992 7.5 12.4992C6.30653 12.4992 5.16193 12.9733 4.31802 13.8173C3.47411 14.6612 3 15.8058 3 16.9992H1.5ZM7.5 10.2492C5.01375 10.2492 3 8.23549 3 5.74924C3 3.26299 5.01375 1.24924 7.5 1.24924C9.98625 1.24924 12 3.26299 12 5.74924C12 8.23549 9.98625 10.2492 7.5 10.2492ZM7.5 8.74924C9.1575 8.74924 10.5 7.40674 10.5 5.74924C10.5 4.09174 9.1575 2.74924 7.5 2.74924C5.8425 2.74924 4.5 4.09174 4.5 5.74924C4.5 7.40674 5.8425 8.74924 7.5 8.74924ZM13.713 11.5265C14.767 12.0012 15.6615 12.7702 16.2889 13.741C16.9164 14.7119 17.2501 15.8433 17.25 16.9992H15.75C15.7502 16.1322 15.4999 15.2836 15.0293 14.5554C14.5587 13.8272 13.8878 13.2505 13.0972 12.8945L13.7123 11.5265H13.713ZM13.197 3.05899C13.9526 3.37046 14.5987 3.89939 15.0533 4.57866C15.5078 5.25793 15.7503 6.05692 15.75 6.87424C15.7503 7.90349 15.3658 8.89566 14.6719 9.65586C13.978 10.4161 13.025 10.8893 12 10.9827V9.47299C12.5557 9.3934 13.0713 9.13775 13.471 8.74358C13.8707 8.34941 14.1335 7.83748 14.2209 7.28294C14.3082 6.7284 14.2155 6.16046 13.9563 5.6625C13.6971 5.16454 13.2851 4.7628 12.7808 4.51624L13.197 3.05899Z" fill="#666666"/>
</g>
<defs>
<clipPath id="clip0_4_204">
<rect width="18" height="18" fill="white" transform="translate(0 0.499237)"/>
</clipPath>
</defs>
</svg>
