<svg width="18" height="19" viewBox="0 0 18 19" fill="none" xmlns="http://www.w3.org/2000/svg">
<g opacity="0.8" clip-path="url(#clip0_4_214)">
<path d="M9.30001 10.649L13.05 15.6492C13.0918 15.705 13.1172 15.7712 13.1235 15.8406C13.1298 15.9099 13.1166 15.9797 13.0854 16.0419C13.0543 16.1042 13.0064 16.1566 12.9472 16.1932C12.8879 16.2298 12.8197 16.2492 12.75 16.2492H5.25001C5.18037 16.2492 5.11211 16.2298 5.05286 16.1932C4.99362 16.1566 4.94575 16.1042 4.9146 16.0419C4.88346 15.9797 4.87027 15.9099 4.87653 15.8406C4.88278 15.7712 4.90823 15.705 4.95001 15.6492L8.70001 10.649C8.73494 10.6024 8.78024 10.5646 8.83231 10.5386C8.88438 10.5125 8.9418 10.499 9.00001 10.499C9.05823 10.499 9.11565 10.5125 9.16772 10.5386C9.21979 10.5646 9.26508 10.6024 9.30001 10.649ZM9.00001 12.7467L7.50001 14.7492H10.5L9.00001 12.7467ZM13.5 14.7492V13.2492H15V4.24924H3.00001V13.2492H4.50001V14.7492H2.24401C2.14586 14.749 2.04871 14.7295 1.95814 14.6916C1.86757 14.6538 1.78537 14.5984 1.71624 14.5288C1.64711 14.4591 1.59243 14.3764 1.55532 14.2856C1.51822 14.1947 1.49942 14.0974 1.50001 13.9992V3.49924C1.50001 3.08524 1.84126 2.74924 2.24401 2.74924H15.756C16.167 2.74924 16.5 3.08299 16.5 3.49924V13.9992C16.5 14.4132 16.1588 14.7492 15.756 14.7492H13.5Z" fill="#666666"/>
</g>
<defs>
<clipPath id="clip0_4_214">
<rect width="18" height="18" fill="white" transform="translate(0 0.499237)"/>
</clipPath>
</defs>
</svg>
