<svg width="18" height="19" viewBox="0 0 18 19" fill="none" xmlns="http://www.w3.org/2000/svg">
<g opacity="0.8" clip-path="url(#clip0_4_196)">
<path d="M1.5 3.49399C1.50137 3.29702 1.58018 3.1085 1.71938 2.96915C1.85859 2.8298 2.04704 2.75081 2.244 2.74924H15.756C16.167 2.74924 16.5 3.08299 16.5 3.49399V15.5045C16.4986 15.7015 16.4198 15.89 16.2806 16.0293C16.1414 16.1687 15.953 16.2477 15.756 16.2492H2.244C2.04661 16.249 1.85737 16.1705 1.71787 16.0308C1.57836 15.8912 1.5 15.7019 1.5 15.5045V3.49399ZM3 4.24924V14.7492H15V4.24924H3ZM4.5 5.74924H9V10.2492H4.5V5.74924ZM6 7.24924V8.74924H7.5V7.24924H6ZM4.5 11.7492H13.5V13.2492H4.5V11.7492ZM10.5 5.74924H13.5V7.24924H10.5V5.74924ZM10.5 8.74924H13.5V10.2492H10.5V8.74924Z" fill="#666666"/>
</g>
<defs>
<clipPath id="clip0_4_196">
<rect width="18" height="18" fill="white" transform="translate(0 0.499237)"/>
</clipPath>
</defs>
</svg>
