<svg width="34" height="34" viewBox="0 0 34 34" fill="none" xmlns="http://www.w3.org/2000/svg">
<rect x="0.5" y="0.5" width="33" height="33" rx="7.5" fill="#FBFBFB"/>
<rect x="0.5" y="0.5" width="33" height="33" rx="7.5" stroke="#E5E8EB"/>
<path d="M11.6538 17.5005V13.6568C11.6653 12.9013 11.8257 12.1554 12.1258 11.462C12.426 10.7685 12.8601 10.1411 13.4032 9.61573C13.9462 9.09032 14.5877 8.67724 15.2907 8.40014C15.9937 8.12304 16.7445 7.98738 17.5 8.00092C18.2555 7.98738 19.0063 8.12304 19.7093 8.40014C20.4123 8.67724 21.0538 9.09032 21.5968 9.61573C22.1399 10.1411 22.574 10.7685 22.8742 11.462C23.1743 12.1554 23.3347 12.9013 23.3462 13.6568V17.5005M20.4231 25.1732C21.1983 25.1732 21.9418 24.8652 22.49 24.3171C23.0382 23.7689 23.3462 23.0254 23.3462 22.2502V18.9619M20.4231 25.1732C20.4231 25.6577 20.2306 26.1223 19.888 26.4649C19.5454 26.8075 19.0807 27 18.5962 27H16.4038C15.9193 27 15.4546 26.8075 15.112 26.4649C14.7694 26.1223 14.5769 25.6577 14.5769 25.1732C14.5769 24.6887 14.7694 24.224 15.112 23.8814C15.4546 23.5388 15.9193 23.3463 16.4038 23.3463H18.5962C19.0807 23.3463 19.5454 23.5388 19.888 23.8814C20.2306 24.224 20.4231 24.6887 20.4231 25.1732ZM9.46154 15.3083H10.9231C11.1169 15.3083 11.3028 15.3852 11.4398 15.5223C11.5769 15.6593 11.6538 15.8452 11.6538 16.039V20.4234C11.6538 20.6172 11.5769 20.8031 11.4398 20.9401C11.3028 21.0771 11.1169 21.1541 10.9231 21.1541H9.46154C9.07391 21.1541 8.70217 21.0002 8.42807 20.7261C8.15398 20.452 8 20.0803 8 19.6927V16.7697C8 16.3821 8.15398 16.0104 8.42807 15.7363C8.70217 15.4622 9.07391 15.3083 9.46154 15.3083ZM25.5385 21.1541H24.0769C23.8831 21.1541 23.6972 21.0771 23.5602 20.9401C23.4231 20.8031 23.3462 20.6172 23.3462 20.4234V16.039C23.3462 15.8452 23.4231 15.6593 23.5602 15.5223C23.6972 15.3852 23.8831 15.3083 24.0769 15.3083H25.5385C25.9261 15.3083 26.2978 15.4622 26.5719 15.7363C26.846 16.0104 27 16.3821 27 16.7697V19.6927C27 20.0803 26.846 20.452 26.5719 20.7261C26.2978 21.0002 25.9261 21.1541 25.5385 21.1541Z" stroke="black" stroke-width="2" stroke-linecap="round" stroke-linejoin="round"/>
</svg>
