<svg width="18" height="19" viewBox="0 0 18 19" fill="none" xmlns="http://www.w3.org/2000/svg">
<g opacity="0.8" clip-path="url(#clip0_4_172)">
<path d="M5.25 4.24924V1.99924C5.25 1.80032 5.32902 1.60956 5.46967 1.46891C5.61032 1.32825 5.80109 1.24924 6 1.24924H12C12.1989 1.24924 12.3897 1.32825 12.5303 1.46891C12.671 1.60956 12.75 1.80032 12.75 1.99924V4.24924H15.75C15.9489 4.24924 16.1397 4.32825 16.2803 4.46891C16.421 4.60956 16.5 4.80032 16.5 4.99924V15.4992C16.5 15.6981 16.421 15.8889 16.2803 16.0296C16.1397 16.1702 15.9489 16.2492 15.75 16.2492H2.25C2.05109 16.2492 1.86032 16.1702 1.71967 16.0296C1.57902 15.8889 1.5 15.6981 1.5 15.4992V4.99924C1.5 4.80032 1.57902 4.60956 1.71967 4.46891C1.86032 4.32825 2.05109 4.24924 2.25 4.24924H5.25ZM15 10.2492H3V14.7492H15V10.2492ZM15 5.74924H3V8.74924H5.25V7.24924H6.75V8.74924H11.25V7.24924H12.75V8.74924H15V5.74924ZM6.75 2.74924V4.24924H11.25V2.74924H6.75Z" fill="#666666"/>
</g>
<defs>
<clipPath id="clip0_4_172">
<rect width="18" height="18" fill="white" transform="translate(0 0.499237)"/>
</clipPath>
</defs>
</svg>
