<svg width="110" height="35" viewBox="0 0 110 35" fill="none" xmlns="http://www.w3.org/2000/svg">
<path d="M35.2287 13.8894H38.9554V25.608H35.2287V23.5262C34.6118 24.811 33.327 25.608 31.6054 25.608C28.5215 25.608 27.5453 23.5004 27.5453 21.0593V13.8894H31.2461V20.1597C31.2461 21.7788 31.7864 22.6784 33.1478 22.6784C34.5351 22.6784 35.2296 21.522 35.2296 19.697V13.8894H35.2287Z" fill="#121212"/>
<path d="M49.0763 17.6722C48.4736 17.3317 47.8977 17.2006 47.0864 17.2006C45.5155 17.2006 44.4679 18.0913 44.4679 20.1071V25.6071H40.6966V13.9803H44.4679V16.1013C44.9128 14.7925 46.1181 13.6656 47.6891 13.6656C48.3961 13.6656 48.9988 13.8751 49.3126 14.1372L49.0763 17.6722Z" fill="#121212"/>
<path d="M54.6299 25.6071H50.6232V8.89221H57.6808C62.0057 8.89221 64.5261 10.9089 64.5261 14.517C64.5261 18.1252 62.0057 20.1686 57.6808 20.1686H54.6299V25.6071ZM57.5221 16.9314C59.7242 16.9314 60.6265 16.1094 60.6265 14.5438C60.6265 12.9782 59.7242 12.1295 57.5221 12.1295H54.6299V16.9314H57.5221Z" fill="#121212"/>
<path d="M75.9166 22.1898C75.9166 22.7809 76.1734 23.0376 76.6361 23.0376C76.9704 23.0376 77.253 22.9859 77.5874 22.8317V24.8101C77.0221 25.2211 76.3026 25.5554 75.1713 25.5554C73.809 25.5554 72.8069 24.8359 72.4734 23.5512C71.8306 24.8618 70.4175 25.5554 68.6442 25.5554C66.3565 25.5554 64.9175 24.399 64.9175 22.4456C64.9175 20.2613 66.5624 19.3359 69.081 18.8482L72.2675 18.283V18.077C72.2675 16.9974 71.7281 16.3554 70.5976 16.3554C69.5179 16.3554 68.9785 17.0232 68.7726 17.9745L65.3285 17.7177C65.7136 15.2766 67.5387 13.58 70.8026 13.58C73.784 13.58 75.9166 14.9165 75.9166 18.0253V22.1898ZM72.2675 20.2364L70.3916 20.6215C69.2353 20.8533 68.5158 21.1351 68.5158 22.0346C68.5158 22.7033 69.0293 23.1143 69.8264 23.1143C71.1887 23.1143 72.2675 22.0864 72.2675 20.4673V20.2364Z" fill="#121212"/>
<path d="M81.3123 21.4961C81.4666 22.6017 82.3403 23.2177 83.7285 23.2177C84.7306 23.2177 85.3983 22.8575 85.3983 22.2415C85.3983 21.6762 85.0382 21.3677 84.1136 21.2135L82.3662 20.9309C79.745 20.5199 78.3319 19.6203 78.3319 17.3593C78.3319 15.1491 80.2594 13.5818 83.3175 13.5818C86.5556 13.5818 88.4831 15.0208 88.714 17.4627L85.656 17.5653C85.4759 16.5631 84.6798 15.9979 83.2657 15.9979C82.3403 15.9979 81.7751 16.3831 81.7751 17C81.7751 17.4627 82.1344 17.7454 82.7005 17.822L84.9107 18.2072C87.4035 18.5923 88.8424 19.6979 88.8424 21.8822C88.8424 24.2724 86.8124 25.608 83.7026 25.608C80.6187 25.608 78.2802 24.3491 78.0742 21.5737L81.3123 21.4961Z" fill="#121212"/>
<path d="M93.0042 21.4961C93.1585 22.6017 94.0322 23.2177 95.4204 23.2177C96.4225 23.2177 97.0902 22.8575 97.0902 22.2415C97.0902 21.6762 96.7301 21.3677 95.8055 21.2135L94.0581 20.9309C91.4369 20.5199 90.0238 19.6203 90.0238 17.3593C90.0238 15.1491 91.9513 13.5818 95.0094 13.5818C98.2475 13.5818 100.175 15.0208 100.406 17.4627L97.3479 17.5653C97.1678 16.5631 96.3717 15.9979 94.9576 15.9979C94.0322 15.9979 93.467 16.3831 93.467 17C93.467 17.4627 93.8263 17.7454 94.3924 17.822L96.6026 18.2072C99.0954 18.5923 100.534 19.6979 100.534 21.8822C100.534 24.2724 98.5043 25.608 95.3945 25.608C92.3106 25.608 89.9721 24.3491 89.7661 21.5737L93.0042 21.4961Z" fill="#121212"/>
<path d="M12.3683 23.5556C13.169 22.7149 13.9526 21.8919 14.7524 21.0521C16.0005 21.9677 17.3726 22.3065 18.8803 21.9606C20.0099 21.7012 20.9282 21.094 21.6334 20.1739C23.0456 18.332 22.9315 15.6867 21.382 13.974C19.8209 12.2489 17.09 11.7327 14.8317 13.3428C14.0043 12.5556 13.1725 11.7648 12.3407 10.9731C14.5428 8.78162 19.2877 7.77416 22.9743 10.7172C26.7081 13.6986 27.1806 19.1691 24.0058 22.755C20.8069 26.3711 15.5271 26.3364 12.3683 23.5556Z" fill="#121212"/>
<path d="M8.99825 19.8048C9.83097 18.9712 10.686 18.1153 11.5677 17.2327C10.6797 16.3706 9.80422 15.5218 8.94922 14.6918C9.85861 13.7726 10.6949 12.9274 11.5142 12.0991C13.2305 13.8029 14.9583 15.5173 16.6683 17.2149C14.9645 18.9498 13.2652 20.6803 11.5838 22.393C10.7109 21.5193 9.87287 20.6795 8.99825 19.8048Z" fill="#121212"/>
</svg>
