<svg width="18" height="19" viewBox="0 0 18 19" fill="none" xmlns="http://www.w3.org/2000/svg">
<g opacity="0.8" clip-path="url(#clip0_4_223)">
<path d="M3 13.9992H4.5V15.4992H13.5V3.49924H4.5V4.99924H3V2.74924C3 2.55032 3.07902 2.35956 3.21967 2.21891C3.36032 2.07825 3.55109 1.99924 3.75 1.99924H14.25C14.4489 1.99924 14.6397 2.07825 14.7803 2.21891C14.921 2.35956 15 2.55032 15 2.74924V16.2492C15 16.4481 14.921 16.6389 14.7803 16.7796C14.6397 16.9202 14.4489 16.9992 14.25 16.9992H3.75C3.55109 16.9992 3.36032 16.9202 3.21967 16.7796C3.07902 16.6389 3 16.4481 3 16.2492V13.9992ZM4.5 8.74924H9.75V10.2492H4.5V12.4992L0.75 9.49924L4.5 6.49924V8.74924Z" fill="#666666"/>
</g>
<defs>
<clipPath id="clip0_4_223">
<rect width="18" height="18" fill="white" transform="translate(0 0.499237)"/>
</clipPath>
</defs>
</svg>
