<svg width="18" height="19" viewBox="0 0 18 19" fill="none" xmlns="http://www.w3.org/2000/svg">
<g opacity="0.8" clip-path="url(#clip0_4_164)">
<path d="M13.5 5.74924H15.75C15.9489 5.74924 16.1397 5.82825 16.2803 5.96891C16.421 6.10956 16.5 6.30032 16.5 6.49924V15.4992C16.5 15.6981 16.421 15.8889 16.2803 16.0296C16.1397 16.1702 15.9489 16.2492 15.75 16.2492H2.25C2.05109 16.2492 1.86032 16.1702 1.71967 16.0296C1.57902 15.8889 1.5 15.6981 1.5 15.4992V3.49924C1.5 3.30032 1.57902 3.10956 1.71967 2.96891C1.86032 2.82825 2.05109 2.74924 2.25 2.74924H13.5V5.74924ZM3 7.24924V14.7492H15V7.24924H3ZM3 4.24924V5.74924H12V4.24924H3ZM11.25 10.2492H13.5V11.7492H11.25V10.2492Z" fill="#666666"/>
</g>
<defs>
<clipPath id="clip0_4_164">
<rect width="18" height="18" fill="white" transform="translate(0 0.499237)"/>
</clipPath>
</defs>
</svg>
