<svg width="18" height="19" viewBox="0 0 18 19" fill="none" xmlns="http://www.w3.org/2000/svg">
<g opacity="0.8" clip-path="url(#clip0_4_188)">
<path d="M9.64951 2.74923L16.794 15.1242C16.8598 15.2382 16.8945 15.3676 16.8945 15.4992C16.8945 15.6309 16.8598 15.7602 16.794 15.8742C16.7282 15.9882 16.6335 16.0829 16.5195 16.1487C16.4055 16.2146 16.2762 16.2492 16.1445 16.2492H1.85551C1.72386 16.2492 1.59453 16.2146 1.48052 16.1487C1.36651 16.0829 1.27183 15.9882 1.20601 15.8742C1.14018 15.7602 1.10553 15.6309 1.10553 15.4992C1.10553 15.3676 1.14019 15.2382 1.20601 15.1242L8.35051 2.74923C8.41634 2.63523 8.51102 2.54056 8.62503 2.47474C8.73904 2.40892 8.86836 2.37427 9.00001 2.37427C9.13166 2.37427 9.26098 2.40892 9.37499 2.47474C9.489 2.54056 9.58368 2.63523 9.64951 2.74923ZM3.15451 14.7492H14.8455L9.00001 4.62423L3.15451 14.7492ZM8.25001 12.4992H9.75001V13.9992H8.25001V12.4992ZM8.25001 7.24923H9.75001V10.9992H8.25001V7.24923Z" fill="#666666"/>
</g>
<defs>
<clipPath id="clip0_4_188">
<rect width="18" height="18" fill="white" transform="translate(0 0.499237)"/>
</clipPath>
</defs>
</svg>
