<svg width="18" height="19" viewBox="0 0 18 19" fill="none" xmlns="http://www.w3.org/2000/svg">
<g opacity="0.8" clip-path="url(#clip0_4_180)">
<path d="M9 3.49924C7.4087 3.49924 5.88258 4.13138 4.75736 5.2566C3.63214 6.38181 3 7.90794 3 9.49924H5.25C5.64782 9.49924 6.02936 9.65727 6.31066 9.93858C6.59196 10.2199 6.75 10.6014 6.75 10.9992V14.7492C6.75 15.1471 6.59196 15.5286 6.31066 15.8099C6.02936 16.0912 5.64782 16.2492 5.25 16.2492H3C2.60218 16.2492 2.22064 16.0912 1.93934 15.8099C1.65804 15.5286 1.5 15.1471 1.5 14.7492V9.49924C1.5 5.35699 4.85775 1.99924 9 1.99924C13.1423 1.99924 16.5 5.35699 16.5 9.49924V14.7492C16.5 15.1471 16.342 15.5286 16.0607 15.8099C15.7794 16.0912 15.3978 16.2492 15 16.2492H12.75C12.3522 16.2492 11.9706 16.0912 11.6893 15.8099C11.408 15.5286 11.25 15.1471 11.25 14.7492V10.9992C11.25 10.6014 11.408 10.2199 11.6893 9.93858C11.9706 9.65727 12.3522 9.49924 12.75 9.49924H15C15 7.90794 14.3679 6.38181 13.2426 5.2566C12.1174 4.13138 10.5913 3.49924 9 3.49924ZM3 10.9992V14.7492H5.25V10.9992H3ZM12.75 10.9992V14.7492H15V10.9992H12.75Z" fill="#666666"/>
</g>
<defs>
<clipPath id="clip0_4_180">
<rect width="18" height="18" fill="white" transform="translate(0 0.499237)"/>
</clipPath>
</defs>
</svg>
