<svg width="18" height="19" viewBox="0 0 18 19" fill="none" xmlns="http://www.w3.org/2000/svg">
<g opacity="0.8" clip-path="url(#clip0_4_156)">
<path d="M14.25 16.9992H3.75C3.15326 16.9992 2.58097 16.7622 2.15901 16.3402C1.73705 15.9183 1.5 15.346 1.5 14.7492V2.74924C1.5 2.55032 1.57902 2.35956 1.71967 2.21891C1.86032 2.07825 2.05109 1.99924 2.25 1.99924H12.75C12.9489 1.99924 13.1397 2.07825 13.2803 2.21891C13.421 2.35956 13.5 2.55032 13.5 2.74924V11.7492H16.5V14.7492C16.5 15.346 16.2629 15.9183 15.841 16.3402C15.419 16.7622 14.8467 16.9992 14.25 16.9992ZM13.5 13.2492V14.7492C13.5 14.9481 13.579 15.1389 13.7197 15.2796C13.8603 15.4202 14.0511 15.4992 14.25 15.4992C14.4489 15.4992 14.6397 15.4202 14.7803 15.2796C14.921 15.1389 15 14.9481 15 14.7492V13.2492H13.5ZM12 15.4992V3.49924H3V14.7492C3 14.9481 3.07902 15.1389 3.21967 15.2796C3.36032 15.4202 3.55109 15.4992 3.75 15.4992H12ZM4.5 5.74924H10.5V7.24924H4.5V5.74924ZM4.5 8.74924H10.5V10.2492H4.5V8.74924ZM4.5 11.7492H8.25V13.2492H4.5V11.7492Z" fill="#666666"/>
</g>
<defs>
<clipPath id="clip0_4_156">
<rect width="18" height="18" fill="white" transform="translate(0 0.499237)"/>
</clipPath>
</defs>
</svg>
